Coordinates
version=1
nRows=28
nColumns=34
inDegrees=no

Units are S.I. units (second, meters, Newtons, ...)
If the header above contains a line with 'inDegrees', this indicates whether rotational values are in degrees (yes) or radians (no).

endheader
time	pelvis_tilt	pelvis_list	pelvis_rotation	pelvis_tx	pelvis_ty	pelvis_tz	hip_flexion_r	hip_adduction_r	hip_rotation_r	knee_angle_r	ankle_angle_r	subtalar_angle_r	mtp_angle_r	hip_flexion_l	hip_adduction_l	hip_rotation_l	knee_angle_l	ankle_angle_l	subtalar_angle_l	mtp_angle_l	lumbar_extension	lumbar_bending	lumbar_rotation	arm_flex_r	arm_add_r	arm_rot_r	elbow_flex_r	pro_sup_r	arm_flex_l	arm_add_l	arm_rot_l	elbow_flex_l	pro_sup_l
9.88	-0.373611	-0.0661743	-0.028614	-0.236397	0.925287	-0.717453	0.62963	-0.167859	-0.132277	0.319968	0.065478	0.0504779	-0.0955903	0.644643	-0.381523	-0.348122	0.403021	0.0930989	0.105731	-0.0956309	-0.0272646	0.0286313	0.0786468	0.515642	-0.320658	0.480447	2.36296	1.77693	0.675098	-0.327924	0.657635	2.26044	1.80898
9.89	-0.370614	-0.0637209	-0.029459	-0.235121	0.926448	-0.718923	0.619249	-0.170198	-0.131129	0.308102	0.0610824	0.0538536	-0.0955903	0.634271	-0.376393	-0.352951	0.395318	0.0934726	0.106211	-0.0956309	-0.0234446	0.0260649	0.0774624	0.502093	-0.318797	0.479833	2.35946	1.78668	0.660498	-0.330878	0.655699	2.25922	1.81229
9.9	-0.367479	-0.0609739	-0.0300305	-0.233858	0.927573	-0.72037	0.608893	-0.173087	-0.130432	0.296572	0.0570572	0.0577763	-0.0955904	0.623761	-0.370776	-0.357681	0.387419	0.0937384	0.106764	-0.0956308	-0.0198941	0.0231565	0.0763079	0.488678	-0.317265	0.479476	2.35588	1.79903	0.646667	-0.33387	0.653995	2.25788	1.81607
9.91	-0.364208	-0.0579752	-0.0303481	-0.23261	0.928666	-0.721794	0.598556	-0.176466	-0.130217	0.285367	0.0533763	0.0622405	-0.0955905	0.613132	-0.364741	-0.362339	0.37934	0.093851	0.107434	-0.0956308	-0.01662	0.019967	0.0752224	0.475449	-0.316074	0.479358	2.35228	1.81318	0.633664	-0.336862	0.652583	2.25644	1.82043
9.92	-0.360817	-0.0547884	-0.0304406	-0.231378	0.929726	-0.723195	0.588251	-0.180243	-0.130482	0.274479	0.0500026	0.0671929	-0.0955905	0.60243	-0.358386	-0.366955	0.371113	0.0937921	0.10828	-0.0956308	-0.0136014	0.0165799	0.0742317	0.462445	-0.315186	0.479417	2.34877	1.82775	0.621506	-0.339828	0.651501	2.25492	1.82534
9.93	-0.357359	-0.0514979	-0.0303497	-0.230162	0.930751	-0.724568	0.578029	-0.184289	-0.131185	0.263896	0.0468861	0.0725243	-0.0955906	0.591733	-0.351842	-0.371561	0.362777	0.0935737	0.109375	-0.0956307	-0.0107675	0.013097	0.0733481	0.449682	-0.314535	0.479572	2.34549	1.84103	0.610158	-0.342756	0.650758	2.25334	1.83068
9.94	-0.35392	-0.0482015	-0.0301296	-0.228961	0.931736	-0.725906	0.567971	-0.188444	-0.132242	0.253607	0.0439657	0.0780777	-0.0955907	0.581154	-0.345261	-0.376187	0.354372	0.0932343	0.110803	-0.0956307	-0.00799857	0.0096264	0.0725706	0.437149	-0.314041	0.479736	2.34254	1.85164	0.599528	-0.345641	0.650325	2.25173	1.83629
9.95	-0.350599	-0.0449949	-0.0298374	-0.227774	0.932674	-0.727202	0.558175	-0.192544	-0.133549	0.243604	0.0411786	0.0836765	-0.0955908	0.570807	-0.338791	-0.380849	0.345926	0.0928278	0.112631	-0.0956306	-0.00515509	0.00626386	0.0718848	0.424821	-0.313629	0.479834	2.33996	1.85886	0.589484	-0.348485	0.650128	2.25012	1.84201
9.96	-0.347475	-0.0419536	-0.0295176	-0.2266	0.93356	-0.728448	0.548718	-0.196459	-0.13501	0.233879	0.0384731	0.0891657	-0.0955908	0.560775	-0.33254	-0.385539	0.337448	0.0924074	0.114887	-0.0956306	-0.00212237	0.00307673	0.07126	0.412668	-0.313229	0.479798	2.33774	1.86264	0.579876	-0.351278	0.650056	2.24853	1.84766
9.97	-0.344584	-0.0391221	-0.0291902	-0.225436	0.934392	-0.729641	0.539625	-0.200113	-0.136562	0.22442	0.0358162	0.0944469	-0.0955909	0.551089	-0.326561	-0.390221	0.328933	0.0920092	0.117555	-0.0956305	0.00115433	9.83702e-05	0.0706482	0.400666	-0.312783	0.479574	2.33582	1.86345	0.570553	-0.353999	0.64998	2.24701	1.85301
9.98	-0.34191	-0.0365158	-0.0288471	-0.22428	0.935173	-0.730781	0.530856	-0.203489	-0.138184	0.215204	0.0331932	0.0994879	-0.095591	0.541726	-0.320852	-0.394844	0.320371	0.0916446	0.120579	-0.0956305	0.00465763	-0.00266435	0.069989	0.388803	-0.312242	0.479119	2.33409	1.86205	0.561372	-0.35661	0.649787	2.24558	1.85775
9.99	-0.339389	-0.0341282	-0.0284577	-0.223132	0.935907	-0.731874	0.52231	-0.206617	-0.139901	0.206191	0.030606	0.104323	-0.095591	0.532618	-0.315376	-0.399347	0.311758	0.0913025	0.123888	-0.0956304	0.00830442	-0.00522048	0.0692206	0.377079	-0.311573	0.478414	2.33247	1.8593	0.552216	-0.359054	0.649409	2.24426	1.86157
10	-0.336925	-0.031937	-0.0279795	-0.221988	0.936605	-0.732928	0.513843	-0.209553	-0.14177	0.197331	0.0280709	0.109038	-0.0955911	0.523666	-0.31007	-0.403668	0.303093	0.090954	0.127401	-0.0956304	0.0119665	-0.00758894	0.0682902	0.365501	-0.310757	0.477454	2.33087	1.85606	0.542993	-0.361261	0.648816	2.24304	1.86436
10.01	-0.334415	-0.029911	-0.027372	-0.220847	0.937273	-0.733951	0.505305	-0.212368	-0.143853	0.188569	0.0256114	0.113734	-0.0955912	0.514754	-0.304861	-0.40774	0.294359	0.090556	0.131021	-0.0956303	0.0155061	-0.00979481	0.067165	0.354074	-0.30979	0.476256	2.32921	1.85306	0.533637	-0.363153	0.648003	2.24186	1.86617
10.02	-0.331784	-0.0280179	-0.026613	-0.219708	0.937918	-0.73495	0.496583	-0.215113	-0.146192	0.179852	0.0232508	0.118499	-0.0955913	0.50578	-0.299679	-0.411502	0.28552	0.090061	0.134639	-0.0956303	0.0188196	-0.0118661	0.0658401	0.342796	-0.308683	0.474861	2.32745	1.85083	0.524098	-0.364663	0.646982	2.24069	1.8671
10.03	-0.329013	-0.026229	-0.0257086	-0.218569	0.938543	-0.735927	0.487637	-0.217814	-0.148782	0.171142	0.0210029	0.123375	-0.0955913	0.496691	-0.294483	-0.414922	0.276528	0.0894308	0.138168	-0.0956302	0.0218752	-0.0138324	0.0643415	0.331647	-0.307451	0.473337	2.32556	1.84961	0.514338	-0.365756	0.645775	2.23952	1.86726
10.04	-0.326143	-0.024518	-0.0246894	-0.217431	0.939144	-0.73688	0.478514	-0.22047	-0.151575	0.162417	0.0188682	0.128346	-0.0955914	0.4875	-0.289257	-0.418003	0.267352	0.0886503	0.141567	-0.0956302	0.024718	-0.0157277	0.0627177	0.320591	-0.306112	0.471775	2.32353	1.84942	0.504326	-0.366437	0.644419	2.23834	1.8667
10.05	-0.32325	-0.0228581	-0.0235973	-0.216294	0.939713	-0.737804	0.469309	-0.22307	-0.154486	0.153674	0.0168353	0.133348	-0.0955915	0.478267	-0.28401	-0.420789	0.257992	0.0877344	0.144846	-0.0956301	0.0274373	-0.0175911	0.0610225	0.309598	-0.304682	0.470275	2.32139	1.85007	0.494041	-0.366752	0.642958	2.23718	1.86544
10.06	-0.320404	-0.0212245	-0.0224723	-0.215162	0.940247	-0.738693	0.460118	-0.225601	-0.157426	0.144921	0.0148915	0.138302	-0.0955915	0.469064	-0.278761	-0.423343	0.248487	0.0867256	0.148059	-0.0956301	0.0301183	-0.0194618	0.0592954	0.29865	-0.303167	0.46893	2.31912	1.85129	0.483476	-0.366771	0.641424	2.23608	1.86356
10.07	-0.317642	-0.0195995	-0.0213477	-0.214034	0.94074	-0.739542	0.451006	-0.228052	-0.160318	0.136174	0.0130287	0.143132	-0.0955916	0.459952	-0.273543	-0.425729	0.238914	0.0856827	0.151269	-0.09563	0.0328107	-0.0213691	0.0575499	0.287763	-0.301569	0.467814	2.31671	1.85277	0.472628	-0.366576	0.639824	2.23505	1.86119
10.08	-0.314966	-0.0179745	-0.0202511	-0.212913	0.941192	-0.740347	0.441998	-0.230412	-0.163092	0.127455	0.0112481	0.147781	-0.0955917	0.450978	-0.268399	-0.427994	0.229384	0.0846649	0.154508	-0.09563	0.0355218	-0.023329	0.0557731	0.276985	-0.299877	0.466977	2.31416	1.85421	0.4615	-0.366246	0.63812	2.23411	1.8586
10.09	-0.312347	-0.0163476	-0.0192065	-0.2118	0.941605	-0.741103	0.433091	-0.232678	-0.1657	0.118794	0.00956726	0.152225	-0.0955918	0.442168	-0.263371	-0.430154	0.220032	0.0837191	0.15776	-0.0956299	0.0382184	-0.0253443	0.0539368	0.266384	-0.298077	0.466434	2.31143	1.85545	0.450098	-0.365839	0.636241	2.23324	1.8562
10.1	-0.309733	-0.0147281	-0.0182341	-0.210698	0.941983	-0.74181	0.42426	-0.234839	-0.168116	0.110229	0.00801548	0.156471	-0.0955918	0.433532	-0.25851	-0.432197	0.210993	0.0828755	0.160956	-0.0956299	0.0408352	-0.0274011	0.0520153	0.256026	-0.296154	0.466162	2.30852	1.85642	0.438439	-0.365384	0.634096	2.2324	1.85456
10.11	-0.307056	-0.0131417	-0.0173504	-0.209609	0.942332	-0.742467	0.415458	-0.236877	-0.170346	0.101797	0.0066275	0.160562	-0.0955919	0.425064	-0.253871	-0.43409	0.202397	0.0821522	0.163996	-0.0956298	0.0432838	-0.0294638	0.0500029	0.245962	-0.294108	0.466106	2.30544	1.85718	0.426557	-0.364883	0.631606	2.23151	1.85431
10.12	-0.304246	-0.0116341	-0.0165684	-0.208536	0.94266	-0.743073	0.406631	-0.238754	-0.172422	0.0935295	0.00543084	0.164554	-0.095592	0.416744	-0.249526	-0.43579	0.194351	0.0815635	0.166782	-0.0956297	0.0454675	-0.0314726	0.0479235	0.236206	-0.291952	0.466191	2.30221	1.85787	0.414515	-0.364325	0.628735	2.23048	1.85609
10.13	-0.301238	-0.0102676	-0.0158979	-0.207481	0.942973	-0.743629	0.397725	-0.240414	-0.174396	0.085452	0.00443914	0.168509	-0.095592	0.408549	-0.245558	-0.437267	0.186941	0.0811296	0.169248	-0.0956297	0.0472945	-0.0333501	0.0458306	0.226739	-0.289721	0.466334	2.29886	1.8586	0.402402	-0.363697	0.625503	2.22919	1.86047
10.14	-0.297985	-0.00911746	-0.0153448	-0.206445	0.943277	-0.744135	0.388696	-0.241785	-0.176318	0.0775855	0.0036466	0.17247	-0.0955921	0.400457	-0.242061	-0.438508	0.180232	0.0808828	0.171375	-0.0956296	0.0486931	-0.0350082	0.0437971	0.217514	-0.287465	0.466453	2.29543	1.85948	0.390326	-0.362992	0.621985	2.22755	1.86778
10.15	-0.29446	-0.00826888	-0.0149089	-0.20543	0.943578	-0.744591	0.379524	-0.242777	-0.178233	0.0699479	0.0030236	0.176436	-0.0955922	0.392467	-0.239141	-0.439523	0.174276	0.0808687	0.173198	-0.0956296	0.0496238	-0.036355	0.0418979	0.208466	-0.285238	0.466483	2.29195	1.86051	0.378392	-0.362203	0.618289	2.22553	1.87796
